<mxfile host="app.diagrams.net" modified="2022-04-09T15:26:30.164Z" agent="5.0 (Macintosh)" etag="XwU31nz2uIwW1Qkv9mYA" version="17.4.0" type="github">
  <diagram id="5ghW7E0qhmckaOpRLHuF" name="Page-1">
    <mxGraphModel dx="1186" dy="685" grid="1" gridSize="10" guides="1" tooltips="1" connect="1" arrows="1" fold="1" page="1" pageScale="1" pageWidth="827" pageHeight="1169" math="0" shadow="0">
      <root>
        <mxCell id="0" />
        <mxCell id="1" parent="0" />
        <mxCell id="Qi38GL-U-hoG3zewgfX9-6" style="edgeStyle=orthogonalEdgeStyle;rounded=0;orthogonalLoop=1;jettySize=auto;html=1;strokeColor=#000000;strokeWidth=1;" edge="1" parent="1" source="Qi38GL-U-hoG3zewgfX9-1" target="Qi38GL-U-hoG3zewgfX9-3">
          <mxGeometry relative="1" as="geometry" />
        </mxCell>
        <mxCell id="Qi38GL-U-hoG3zewgfX9-1" value="Inicio" style="ellipse;whiteSpace=wrap;html=1;fontSize=16;" vertex="1" parent="1">
          <mxGeometry x="215" y="20" width="90" height="60" as="geometry" />
        </mxCell>
        <mxCell id="Qi38GL-U-hoG3zewgfX9-2" value="Fin" style="ellipse;whiteSpace=wrap;html=1;fontSize=16;" vertex="1" parent="1">
          <mxGeometry x="630" y="380" width="90" height="60" as="geometry" />
        </mxCell>
        <mxCell id="Qi38GL-U-hoG3zewgfX9-7" style="edgeStyle=orthogonalEdgeStyle;rounded=0;orthogonalLoop=1;jettySize=auto;html=1;strokeColor=#000000;strokeWidth=1;" edge="1" parent="1" source="Qi38GL-U-hoG3zewgfX9-3">
          <mxGeometry relative="1" as="geometry">
            <mxPoint x="260" y="380" as="targetPoint" />
          </mxGeometry>
        </mxCell>
        <mxCell id="Qi38GL-U-hoG3zewgfX9-8" style="edgeStyle=orthogonalEdgeStyle;rounded=0;orthogonalLoop=1;jettySize=auto;html=1;exitX=1;exitY=0.5;exitDx=0;exitDy=0;" edge="1" parent="1" source="Qi38GL-U-hoG3zewgfX9-3">
          <mxGeometry relative="1" as="geometry">
            <mxPoint x="440" y="220" as="targetPoint" />
          </mxGeometry>
        </mxCell>
        <mxCell id="Qi38GL-U-hoG3zewgfX9-3" value="Y==0" style="rhombus;whiteSpace=wrap;html=1;fontSize=16;" vertex="1" parent="1">
          <mxGeometry x="200" y="160" width="120" height="120" as="geometry" />
        </mxCell>
        <mxCell id="Qi38GL-U-hoG3zewgfX9-10" style="edgeStyle=orthogonalEdgeStyle;rounded=0;orthogonalLoop=1;jettySize=auto;html=1;entryX=0.5;entryY=0;entryDx=0;entryDy=0;" edge="1" parent="1" target="Qi38GL-U-hoG3zewgfX9-9">
          <mxGeometry relative="1" as="geometry">
            <mxPoint x="500" y="250" as="sourcePoint" />
          </mxGeometry>
        </mxCell>
        <mxCell id="Qi38GL-U-hoG3zewgfX9-11" style="edgeStyle=orthogonalEdgeStyle;rounded=0;orthogonalLoop=1;jettySize=auto;html=1;entryX=0;entryY=0.5;entryDx=0;entryDy=0;strokeColor=#000000;strokeWidth=1;" edge="1" parent="1" target="Qi38GL-U-hoG3zewgfX9-9">
          <mxGeometry relative="1" as="geometry">
            <mxPoint x="320" y="410" as="sourcePoint" />
          </mxGeometry>
        </mxCell>
        <mxCell id="Qi38GL-U-hoG3zewgfX9-12" style="edgeStyle=orthogonalEdgeStyle;rounded=0;orthogonalLoop=1;jettySize=auto;html=1;strokeColor=#000000;strokeWidth=1;" edge="1" parent="1" source="Qi38GL-U-hoG3zewgfX9-9" target="Qi38GL-U-hoG3zewgfX9-2">
          <mxGeometry relative="1" as="geometry" />
        </mxCell>
        <mxCell id="Qi38GL-U-hoG3zewgfX9-9" value="" style="ellipse;whiteSpace=wrap;html=1;aspect=fixed;" vertex="1" parent="1">
          <mxGeometry x="485" y="395" width="30" height="30" as="geometry" />
        </mxCell>
        <mxCell id="Qi38GL-U-hoG3zewgfX9-13" value="+" style="text;html=1;strokeColor=none;fillColor=none;align=center;verticalAlign=middle;whiteSpace=wrap;rounded=0;fontSize=15;" vertex="1" parent="1">
          <mxGeometry x="300" y="190" width="60" height="30" as="geometry" />
        </mxCell>
        <mxCell id="Qi38GL-U-hoG3zewgfX9-14" value="-" style="text;html=1;strokeColor=none;fillColor=none;align=center;verticalAlign=middle;whiteSpace=wrap;rounded=0;fontSize=22;" vertex="1" parent="1">
          <mxGeometry x="245" y="280" width="60" height="30" as="geometry" />
        </mxCell>
        <mxCell id="Qi38GL-U-hoG3zewgfX9-15" value="return false" style="rounded=1;whiteSpace=wrap;html=1;fontSize=16;" vertex="1" parent="1">
          <mxGeometry x="440" y="190" width="120" height="60" as="geometry" />
        </mxCell>
        <mxCell id="Qi38GL-U-hoG3zewgfX9-16" value="return true" style="rounded=1;whiteSpace=wrap;html=1;fontSize=16;" vertex="1" parent="1">
          <mxGeometry x="200" y="380" width="120" height="60" as="geometry" />
        </mxCell>
      </root>
    </mxGraphModel>
  </diagram>
</mxfile>
